# xmcd
#
# Track frame offsets: 
#        150
#        41476
#        79651
#        95991
#        103669
#        143609
#
# Disc length: 2388 seconds
#
# Revision: 0
# Processed by: cddbd v1.5.2PL0 Copyright (c) Steve Scherf et al.
# Submitted via: ExactAudioCopy v0.99pb5
#
DISCID=48095206
DTITLE=Buddy Guy - Odense, Denmark 2000-03-29
DYEAR=1900
DGENRE=
TTITLE0=01 One Room Country Shack
TTITLE1=02 Sweet Home Chicago
TTITLE2=03 Watch Yourself
TTITLE3=04 Boom Boom
TTITLE4=05 I'll Play The Blues For You
TTITLE5=06 Feels Like Rain
EXTD=
EXTT0=
EXTT1=
EXTT2=
EXTT3=
EXTT4=
EXTT5=
PLAYORDER=
